<?xml version="1.0" standalone="no"?>
<!DOCTYPE svg PUBLIC "-//W3C//DTD SVG 20010904//EN"
 "http://www.w3.org/TR/2001/REC-SVG-20010904/DTD/svg10.dtd">
<svg version="1.0" xmlns="http://www.w3.org/2000/svg"
 width="97.000000pt" height="92.000000pt" viewBox="0 0 97.000000 92.000000"
 preserveAspectRatio="xMidYMid meet">
<metadata>
Created by potrace 1.13, written by Peter Selinger 2001-2015
</metadata>
<g transform="translate(0.000000,92.000000) scale(0.100000,-0.100000)"
fill="#000000" stroke="none">
<path d="M385 876 c-220 -55 -365 -275 -327 -496 32 -188 174 -330 362 -362
291 -50 552 211 502 502 -43 254 -290 417 -537 356z m269 -64 c91 -42 149
-100 194 -190 35 -72 37 -81 37 -172 0 -91 -2 -100 -37 -172 -45 -91 -103
-147 -196 -191 -61 -29 -76 -32 -162 -32 -86 0 -101 3 -162 32 -93 44 -151
100 -196 191 -35 72 -37 81 -37 171 0 87 3 102 32 163 40 85 97 147 172 186
78 42 122 52 213 48 61 -3 92 -11 142 -34z"/>
<path d="M400 669 c-97 -44 -144 -117 -144 -224 0 -78 15 -118 68 -173 31 -33
75 -62 96 -62 5 0 10 11 10 25 0 20 -5 25 -24 25 -16 0 -35 13 -56 40 -38 49
-34 61 8 25 34 -28 67 -33 76 -9 9 23 8 24 -15 24 -11 0 -34 13 -50 29 -24 25
-29 38 -29 80 0 27 5 53 10 56 6 3 10 24 10 46 0 41 8 46 42 28 27 -14 149
-14 176 0 34 18 42 13 42 -28 0 -22 5 -43 10 -46 6 -3 10 -29 10 -56 0 -42 -5
-55 -29 -80 -16 -16 -38 -29 -48 -29 -17 0 -19 -6 -15 -62 2 -35 6 -65 7 -66
18 -20 116 62 148 122 30 57 30 165 0 221 -42 80 -129 135 -213 135 -25 0 -65
-10 -90 -21z"/>
</g>
</svg>
