<?xml version="1.0" standalone="no"?>
<!DOCTYPE svg PUBLIC "-//W3C//DTD SVG 20010904//EN"
 "http://www.w3.org/TR/2001/REC-SVG-20010904/DTD/svg10.dtd">
<svg version="1.0" xmlns="http://www.w3.org/2000/svg"
 width="98.000000pt" height="94.000000pt" viewBox="0 0 98.000000 94.000000"
 preserveAspectRatio="xMidYMid meet">
<metadata>
Created by potrace 1.13, written by Peter Selinger 2001-2015
</metadata>
<g transform="translate(0.000000,94.000000) scale(0.100000,-0.100000)"
fill="#000000" stroke="none">
<path d="M395 896 c-220 -55 -365 -275 -327 -496 32 -188 174 -330 362 -362
291 -50 552 211 502 502 -43 254 -290 417 -537 356z m269 -64 c91 -42 149
-100 194 -190 35 -72 37 -81 37 -172 0 -91 -2 -100 -37 -172 -45 -91 -103
-147 -196 -191 -61 -29 -76 -32 -162 -32 -86 0 -101 3 -162 32 -93 44 -151
100 -196 191 -35 72 -37 81 -37 171 0 87 3 102 32 163 40 85 97 147 172 186
78 42 122 52 213 48 61 -3 92 -11 142 -34z"/>
<path d="M350 672 c-56 -28 -70 -68 -70 -202 0 -192 28 -220 220 -220 192 0
220 28 220 220 0 192 -28 220 -220 220 -89 0 -123 -4 -150 -18z m301 -51 c29
-29 29 -30 29 -151 0 -121 0 -122 -29 -151 -29 -29 -30 -29 -151 -29 -121 0
-122 0 -151 29 -29 29 -29 30 -29 151 0 121 0 122 29 151 29 29 30 29 151 29
121 0 122 0 151 -29z"/>
<path d="M424 546 c-28 -28 -34 -42 -34 -76 0 -60 50 -110 110 -110 34 0 48 6
76 34 28 28 34 42 34 76 0 34 -6 48 -34 76 -28 28 -42 34 -76 34 -34 0 -48 -6
-76 -34z m126 -26 c11 -11 20 -33 20 -50 0 -17 -9 -39 -20 -50 -43 -43 -120
-11 -120 50 0 17 9 39 20 50 11 11 33 20 50 20 17 0 39 -9 50 -20z"/>
</g>
</svg>
