<?xml version="1.0" standalone="no"?>
<!DOCTYPE svg PUBLIC "-//W3C//DTD SVG 20010904//EN"
 "http://www.w3.org/TR/2001/REC-SVG-20010904/DTD/svg10.dtd">
<svg version="1.0" xmlns="http://www.w3.org/2000/svg"
 width="98.000000pt" height="91.000000pt" viewBox="0 0 98.000000 91.000000"
 preserveAspectRatio="xMidYMid meet">
<metadata>
Created by potrace 1.13, written by Peter Selinger 2001-2015
</metadata>
<g transform="translate(0.000000,91.000000) scale(0.100000,-0.100000)"
fill="#000000" stroke="none">
<path d="M385 876 c-220 -55 -365 -275 -327 -496 32 -188 174 -330 362 -362
291 -50 552 211 502 502 -43 254 -290 417 -537 356z m269 -64 c91 -42 149
-100 194 -190 35 -72 37 -81 37 -172 0 -91 -2 -100 -37 -172 -45 -91 -103
-147 -196 -191 -61 -29 -76 -32 -162 -32 -86 0 -101 3 -162 32 -93 44 -151
100 -196 191 -35 72 -37 81 -37 171 0 87 3 102 32 163 40 85 97 147 172 186
78 42 122 52 213 48 61 -3 92 -11 142 -34z"/>
<path d="M321 672 c-47 -26 -74 -76 -66 -127 3 -22 7 -65 9 -95 4 -67 28 -121
74 -166 41 -40 103 -60 212 -69 89 -7 132 11 162 66 15 29 17 48 12 124 -12
172 -76 248 -224 266 -36 5 -83 11 -105 14 -29 4 -50 1 -74 -13z m254 -88 c30
-19 41 -50 25 -69 -18 -22 -33 -18 -62 15 -29 33 -63 39 -94 15 -19 -15 -19
-15 4 -34 12 -11 40 -22 62 -26 22 -4 54 -17 72 -29 27 -17 34 -29 36 -62 4
-49 -26 -81 -87 -95 -82 -18 -175 26 -169 81 5 38 35 38 67 -1 31 -37 80 -44
109 -15 26 26 5 47 -68 67 -67 18 -110 53 -110 88 0 28 38 70 73 80 41 13 111
6 142 -15z"/>
</g>
</svg>
