<?xml version="1.0" standalone="no"?>
<!DOCTYPE svg PUBLIC "-//W3C//DTD SVG 20010904//EN"
 "http://www.w3.org/TR/2001/REC-SVG-20010904/DTD/svg10.dtd">
<svg version="1.0" xmlns="http://www.w3.org/2000/svg"
 width="94.000000pt" height="93.000000pt" viewBox="0 0 94.000000 93.000000"
 preserveAspectRatio="xMidYMid meet">
<metadata>
Created by potrace 1.13, written by Peter Selinger 2001-2015
</metadata>
<g transform="translate(0.000000,93.000000) scale(0.100000,-0.100000)"
fill="#000000" stroke="none">
<path d="M375 886 c-220 -55 -365 -275 -327 -496 32 -188 174 -330 362 -362
291 -50 552 211 502 502 -43 254 -290 417 -537 356z m269 -64 c91 -42 149
-100 194 -190 35 -72 37 -81 37 -172 0 -91 -2 -100 -37 -172 -45 -91 -103
-147 -196 -191 -61 -29 -76 -32 -162 -32 -86 0 -101 3 -162 32 -93 44 -151
100 -196 191 -35 72 -37 81 -37 171 0 87 3 102 32 163 40 85 97 147 172 186
78 42 122 52 213 48 61 -3 92 -11 142 -34z"/>
<path d="M397 574 c-3 -4 0 -16 8 -28 16 -23 20 -73 6 -94 -11 -18 -43 15 -72
75 -20 41 -23 43 -64 43 -24 0 -47 -5 -50 -10 -8 -12 54 -128 96 -182 34 -42
101 -78 147 -78 27 0 34 5 47 36 l15 36 41 -36 c37 -34 45 -37 91 -34 29 2 53
8 55 15 3 7 -14 32 -36 56 -23 24 -41 47 -41 51 0 4 19 33 41 65 23 33 38 64
35 70 -4 6 -29 11 -56 11 -48 0 -48 0 -78 -53 -35 -63 -59 -86 -67 -66 -2 8
-6 39 -7 69 l-3 55 -50 3 c-28 2 -54 0 -58 -4z"/>
</g>
</svg>
